<?xml version="1.0" encoding="UTF-8"?>
<svg width="56px" height="68px" viewBox="0 0 56 68" version="1.1" xmlns="http://www.w3.org/2000/svg" xmlns:xlink="http://www.w3.org/1999/xlink">
    <title>click-tap</title>
    <g id="Main" stroke="none" stroke-width="1" fill="none" fill-rule="evenodd" stroke-linecap="round" stroke-linejoin="round">
        <g id="Home-PAGE-Pre-Live" transform="translate(-572, -2165)" stroke-width="4.83">
            <g id="Group-15" transform="translate(0, 1610)">
                <g id="The-3-Main" transform="translate(286, 492)">
                    <g id="click-tap" transform="translate(289, 66)">
                        <path d="M11.2903292,34.2631615 L11.2903292,16.3157954 C11.2903292,13.6125072 13.4566929,11.4210591 16.129038,11.4210591 C18.8013831,11.4210591 20.9677469,13.6125072 20.9677469,16.3157954 L20.9677469,34.2631615" id="Path" stroke="#000000"></path>
                        <path d="M50,32.6315827 L50,43.2368445 C50,53.5994492 41.6956056,62 31.4516161,62 L29.8387131,62 C19.5947235,62 11.2903292,53.5994492 11.2903292,43.2368445 L11.2903292,32.6315827" id="Path" stroke="#000000"></path>
                        <path d="M20.9677469,39.1578977 L20.9677469,31.000004 C20.9677469,28.2967158 23.1341106,26.1052678 25.8064557,26.1052678 C28.4788008,26.1052678 30.6451646,28.2967158 30.6451646,31.000004 L30.6451646,39.1578977" id="Path" stroke="#000000"></path>
                        <path d="M30.6451646,39.1578977 L30.6451646,31.000004 C30.6451646,28.2967158 32.8115283,26.1052678 35.4838734,26.1052678 C38.1562185,26.1052678 40.3225823,28.2967158 40.3225823,31.000004 L40.3225823,39.1578977" id="Path" stroke="#000000"></path>
                        <path d="M40.3225823,39.1578977 L40.3225823,31.000004 C40.3225823,28.2967158 42.488946,26.1052678 45.1612911,26.1052678 C47.8336363,26.1052678 50,28.2967158 50,31.000004 L50,39.1578977" id="Path" stroke="#000000"></path>
                        <path d="M32.2580675,16.3157954 C32.2580675,12.8230406 31.150082,9.4224661 29.0967778,6.61442819 C26.0578917,2.45149477 21.2447361,-0.0035385583 16.129038,0 C11.012971,-0.00511047201 6.19915432,2.45026009 3.1612983,6.61442819 C1.10491214,9.42085141 -0.00354494366,12.8224849 0,16.3157954" id="Path" stroke="#4CAF50"></path>
                    </g>
                </g>
            </g>
        </g>
    </g>
</svg>