<?xml version="1.0" encoding="UTF-8"?>
<svg width="22px" height="24px" viewBox="0 0 22 24" version="1.1" xmlns="http://www.w3.org/2000/svg" xmlns:xlink="http://www.w3.org/1999/xlink">
    <title>icon / compare</title>
    <defs>
        <linearGradient id="grad1" x1="0%" y1="0%" x2="100%" y2="0%">
          <stop offset="0%" style="stop-color:rgb(255,100,50);stop-opacity:1" />
          <stop offset="100%" style="stop-color:rgb(123,46,255);stop-opacity:1" />
        </linearGradient>
      </defs>
    <g id="icon-/-compare" stroke="none" stroke-width="1" fill="url(#grad1)" fill-rule="evenodd">
        <g id="noun-compare-3964973" transform="translate(0, 3)" fill="url(#grad1)" fill-rule="nonzero">
            <path d="M4.95578947,0 C2.2232406,0 0,2.3002018 0,5.12734242 C0,7.95448305 2.2232406,10.2546848 4.95578947,10.2546848 C7.68833835,10.2546848 9.91157895,7.95448305 9.91157895,5.12734242 C9.91157895,2.3002018 7.68850376,0 4.95578947,0 L4.95578947,0 Z M4.95578947,9.00878855 C2.89473684,9.00878855 1.22736842,7.28370138 1.22736842,5.15130196 C1.22736842,3.01890255 2.89473684,1.26989862 4.95578947,1.26989862 C7.01684211,1.26989862 8.68421053,2.99498579 8.68421053,5.12738521 C8.68421053,7.25978462 7.01684211,9.00878855 4.95578947,9.00878855 Z" id="Shape"></path>
            <path d="M6.11368421,3.68976978 L4.35372556,5.51065234 L3.68222932,4.81591113 C3.45058421,4.57624724 3.05692481,4.57624724 2.82542857,4.81591113 C2.59378346,5.05557503 2.59378346,5.46286161 2.82542857,5.70237148 L3.91384962,6.82847005 C4.02967218,6.94830199 4.19169474,7.02016779 4.35389098,7.02016779 C4.51608722,7.02016779 4.67809323,6.94830199 4.79393233,6.82847005 L6.99389098,4.55235615 C7.22553609,4.31269225 7.22553609,3.90540568 6.99389098,3.66589581 C6.73898459,3.42623191 6.34530451,3.42623191 6.11368421,3.68979502 L6.11368421,3.68976978 Z" id="Path"></path>
            <path d="M17.0442105,10.2546848 C19.7767594,10.2546848 22,7.95448305 22,5.12734242 C22,2.3002018 19.7767594,0 17.0442105,0 C14.3116617,0 12.0884211,2.3002018 12.0884211,5.12734242 C12.0884211,7.95465418 14.3114962,10.2546848 17.0442105,10.2546848 L17.0442105,10.2546848 Z M17.0442105,1.26985583 C19.1052632,1.26985583 20.7726316,2.994943 20.7726316,5.12734242 C20.7726316,7.25974184 19.1052632,9.00874577 17.0442105,9.00874577 C14.9831579,9.00874577 13.3157895,7.2836586 13.3157895,5.15125918 C13.3157895,3.01885976 14.9831579,1.26985583 17.0442105,1.26985583 L17.0442105,1.26985583 Z" id="Shape"></path>
            <path d="M15.4231579,6.8045105 C15.5389805,6.92434245 15.701003,6.99620825 15.8631992,6.99620825 C16.0253831,6.99620825 16.1874015,6.92434245 16.3032406,6.8045105 L17.0674511,6.01384555 L17.8316617,6.8045105 C17.9474842,6.92434245 18.1095068,6.99620825 18.271703,6.99620825 C18.4338992,6.99620825 18.5959053,6.92434245 18.7117444,6.8045105 C18.9433895,6.56484661 18.9433895,6.15756003 18.7117444,5.91805016 L17.9475338,5.12738521 L18.7117444,4.33672025 C18.9433895,4.09705636 18.9433895,3.68976978 18.7117444,3.45025991 C18.4800992,3.21059601 18.0864398,3.21059601 17.8549436,3.45025991 L17.0442105,4.24092486 L16.28,3.45025991 C16.0483549,3.21059601 15.6546955,3.21059601 15.4231992,3.45025991 C15.1915541,3.6899238 15.1915541,4.09721038 15.4231992,4.33672025 L16.1874098,5.12738521 L15.4231992,5.91805016 C15.1915541,6.15771405 15.1915541,6.56500063 15.4231992,6.8045105 L15.4231579,6.8045105 Z" id="Path"></path>
            <path d="M21.0042105,11.9318529 L13.0842105,11.9318529 C12.7369083,11.9318529 12.4821466,12.2193161 12.4821466,12.5547583 C12.4821466,12.914083 12.7599917,13.1776636 13.0842105,13.1776636 L21.0042105,13.1776636 C21.3515128,13.1776636 21.6062745,12.8902005 21.6062745,12.5547583 C21.606436,12.2195001 21.3285947,11.9318529 21.0043759,11.9318529 L21.0042105,11.9318529 Z" id="Path"></path>
            <path d="M21.0042105,14.8549173 L13.0842105,14.8549173 C12.7369083,14.8549173 12.4821466,15.1423805 12.4821466,15.4778227 C12.4821466,15.8132648 12.7599917,16.100728 13.0842105,16.100728 L21.0042105,16.100728 C21.3515128,16.100728 21.6062745,15.8132648 21.6062745,15.4778227 C21.606436,15.1425645 21.3285947,14.8549173 21.0043759,14.8549173 L21.0042105,14.8549173 Z" id="Path"></path>
            <path d="M21.0042105,17.7540221 L13.0842105,17.7540221 C12.7369083,17.7540221 12.4821466,18.0414853 12.4821466,18.3769275 C12.4821466,18.7123525 12.7599917,18.9998328 13.0842105,18.9998328 L21.0042105,18.9998328 C21.3515128,18.9998328 21.6062745,18.7123697 21.6062745,18.3769275 C21.606436,18.0415024 21.3285947,17.7540221 21.0043759,17.7540221 L21.0042105,17.7540221 Z" id="Path"></path>
            <path d="M8.91578947,11.9318529 L0.995789474,11.9318529 C0.648487218,11.9318529 0.393725564,12.2193161 0.393725564,12.5547583 C0.393725564,12.914083 0.671570677,13.1776636 0.995789474,13.1776636 L8.91578947,13.1778308 C9.26309173,13.1778308 9.51785338,12.8903676 9.51785338,12.5549254 C9.51785338,12.2194833 9.26310827,11.9318917 8.91578947,11.9318917 L8.91578947,11.9318529 Z" id="Path"></path>
            <path d="M8.91578947,14.8549173 L0.995789474,14.8549173 C0.648487218,14.8549173 0.393725564,15.1423805 0.393725564,15.4778227 C0.393725564,15.8132648 0.671570677,16.100728 0.995789474,16.100728 L8.91578947,16.1008951 C9.26309173,16.1008951 9.51785338,15.8134319 9.51785338,15.4779898 C9.51785338,15.1425476 9.26310827,14.8549561 8.91578947,14.8549561 L8.91578947,14.8549173 Z" id="Path"></path>
            <path d="M8.91578947,17.7540221 L0.995789474,17.7540221 C0.648487218,17.7540221 0.393725564,18.0414853 0.393725564,18.3769275 C0.393725564,18.7123525 0.671570677,18.9998328 0.995789474,18.9998328 L8.91578947,19 C9.26309173,19 9.51785338,18.7125368 9.51785338,18.3770946 C9.51785338,18.0414984 9.26310827,17.7540609 8.91578947,17.7540609 L8.91578947,17.7540221 Z" id="Path"></path>
        </g>
    </g>
    
</svg>