<?xml version="1.0" encoding="UTF-8"?>
<svg width="52px" height="60px" viewBox="0 0 52 60" version="1.1" xmlns="http://www.w3.org/2000/svg" xmlns:xlink="http://www.w3.org/1999/xlink">
    <title>cube-five</title>
    <g id="Main" stroke="none" stroke-width="1" fill="none" fill-rule="evenodd" stroke-linecap="round" stroke-linejoin="round">
        <g id="Home-PAGE-Pre-Live" transform="translate(-1468, -2177)" stroke-width="4.025">
            <g id="Group-15" transform="translate(0, 1610)">
                <g id="The-3-Main" transform="translate(286, 492)">
                    <g id="cube-five" transform="translate(1185, 78)">
                        <line x1="30.9676674" y1="31.05" x2="23" y2="54" id="Path" stroke="#000000"></line>
                        <line x1="15.0323326" y1="31.05" x2="23" y2="54" id="Path" stroke="#000000"></line>
                        <line x1="45.5750577" y1="40.5" x2="30.9676674" y2="31.05" id="Path" stroke="#000000"></line>
                        <line x1="45.5750577" y1="13.5" x2="30.9676674" y2="31.05" id="Path" stroke="#000000"></line>
                        <line x1="15.0323326" y1="31.05" x2="30.9676674" y2="31.05" id="Path" stroke="#4CAF50"></line>
                        <line x1="45.5750577" y1="13.5" x2="23" y2="17.55" id="Path" stroke="#000000"></line>
                        <line x1="30.9676674" y1="31.05" x2="23" y2="17.55" id="Path" stroke="#4CAF50"></line>
                        <line x1="23" y1="0" x2="23" y2="17.55" id="Path" stroke="#000000"></line>
                        <line x1="0.424942263" y1="13.5" x2="23" y2="17.55" id="Path" stroke="#000000"></line>
                        <line x1="15.0323326" y1="31.05" x2="0.424942263" y2="13.5" id="Path" stroke="#000000"></line>
                        <line x1="15.0323326" y1="31.05" x2="0.424942263" y2="40.5" id="Path" stroke="#000000"></line>
                        <line x1="15.0323326" y1="31.05" x2="23" y2="17.55" id="Path" stroke="#4CAF50"></line>
                        <polygon id="Path" stroke="#000000" points="46 13.5 23 0 0 13.5 0 40.5 23 54 46 40.5"></polygon>
                    </g>
                </g>
            </g>
        </g>
    </g>
</svg>