<?xml version="1.0" encoding="UTF-8"?>
<svg width="37px" height="29px" viewBox="0 0 37 29" version="1.1" xmlns="http://www.w3.org/2000/svg" xmlns:xlink="http://www.w3.org/1999/xlink">
    <title>discord-mark-white</title>
    <g id="Main" stroke="none" stroke-width="1" fill="none" fill-rule="evenodd">
        <g id="Home-PAGE-Live" transform="translate(-265, -9728)" fill="#DCDCDC" fill-rule="nonzero">
            <g id="Footer" transform="translate(0.0223, 9442.5934)">
                <g id="discord-mark-white" transform="translate(265.2977, 286.0733)">
                    <path d="M30.3937763,2.30308219 C28.0364229,1.21166651 25.547794,0.437379559 22.99146,0 C22.6416506,0.632386528 22.3251362,1.28302763 22.0432411,1.94920091 C19.3202538,1.53425222 16.5511531,1.53425222 13.8281657,1.94920091 C13.5461231,1.28309621 13.2296124,0.632462876 12.8799468,0 C10.3219753,0.441073096 7.83170824,1.21719812 5.47198636,2.30878995 C0.787333277,9.31792237 -0.482602798,16.152968 0.15236524,22.8909817 L0.15236524,22.8909817 C2.89581564,24.9408055 5.96651905,26.4997329 9.23099714,27.5 C9.96606016,26.5002261 10.6164995,25.4395857 11.1754104,24.3293379 C10.113839,23.9283857 9.08923178,23.4337061 8.11345339,22.8510274 C8.37026269,22.6626712 8.62142783,22.4686073 8.86412672,22.2802511 C14.612692,25.0141273 21.2671811,25.0141273 27.0157464,22.2802511 C27.2612673,22.4828767 27.5124325,22.6769406 27.7664197,22.8510274 C26.7887553,23.4346501 25.7622747,23.9302773 24.6988185,24.3321918 C25.2570442,25.4419257 25.9075227,26.5016752 26.6432318,27.5 C29.9104964,26.5037465 32.9835559,24.9455577 35.7275078,22.8938356 L35.7275078,22.8938356 C36.472537,15.0799087 34.4547497,8.3076484 30.3937763,2.30308219 Z M11.9797032,18.7471461 C10.210259,18.7471461 8.74842143,17.1232877 8.74842143,15.1255708 C8.74842143,13.1278539 10.1594615,11.489726 11.9740591,11.489726 C13.7886566,11.489726 15.2392058,13.1278539 15.2081629,15.1255708 C15.1771201,17.1232877 13.7830125,18.7471461 11.9797032,18.7471461 Z M23.9001699,18.7471461 C22.1279035,18.7471461 20.6717101,17.1232877 20.6717101,15.1255708 C20.6717101,13.1278539 22.0827502,11.489726 23.9001699,11.489726 C25.7175895,11.489726 27.1568504,13.1278539 27.1258075,15.1255708 C27.0947646,17.1232877 25.7034791,18.7471461 23.9001699,18.7471461 Z" id="Shape"></path>
                </g>
            </g>
        </g>
    </g>
</svg>