<?xml version="1.0" encoding="UTF-8"?>
<svg width="86px" height="86px" viewBox="0 0 86 86" version="1.1" xmlns="http://www.w3.org/2000/svg" xmlns:xlink="http://www.w3.org/1999/xlink">
    <title>noun-insight-4071852</title>
    <g id="Main" stroke="none" stroke-width="1" fill="none" fill-rule="evenodd">
        <g id="Home-PAGE-Pre-Live" transform="translate(-417, -5192)">
            <g id="Group-21" transform="translate(0, 4718)">
                <g id="Stream-Workflow-block" transform="translate(247, 319)">
                    <g id="Group-22" transform="translate(16, 155)">
                        <g id="noun-insight-4071852" transform="translate(154, 0)">
                            <path d="M76.5079212,86 C81.2006267,85.9946884 85.003492,82.1902286 85.0088013,77.4955556 L85.0088013,9.46 C85.003492,4.76532693 81.2006267,0.96086716 76.5079212,0.955555556 L8.50088013,0.955555556 C3.80817465,0.96086716 0.00530937871,4.76532693 0,9.46 L0,77.4955556 C0.00530937871,82.1902286 3.80817465,85.9946884 8.50088013,86 L76.5079212,86 Z M5.66725342,77.4955556 L5.66725342,9.46 C5.66912708,7.89515209 6.93668807,6.62705963 8.50088013,6.62518519 L76.5079212,6.62518519 C78.0721133,6.62705963 79.3396743,7.89515209 79.3415479,9.46 L79.3415479,77.4955556 C79.3396743,79.0604035 78.0721133,80.3284959 76.5079212,80.3303704 L8.50088013,80.3303704 C6.93668807,80.3284959 5.66912708,79.0604035 5.66725342,77.4955556 Z" id="Shape" fill="#000000" fill-rule="nonzero"></path>
                            <g id="+" transform="translate(51.6144, 0)">
                                <rect id="Rectangle" fill="#FFFFFF" x="0" y="0" width="34.3855826" height="34.4"></rect>
                                <path d="M34.349539,16.3445153 C34.349539,18.2483374 32.6922077,19.2002484 29.377545,19.2002484 L21.0706771,19.2002484 L21.0706771,27.5244068 C21.0706771,30.8459688 20.1207433,32.5067497 18.2208757,32.5067497 C16.1997399,32.5067497 15.189172,30.8459688 15.189172,27.5244068 L15.189172,19.2002484 L6.88230409,19.2002484 C3.56764146,19.2002484 1.91031014,18.2483374 1.91031014,16.3445153 C1.91031014,14.3596795 3.56764146,13.3672616 6.88230409,13.3672616 L15.189172,13.3672616 L15.189172,4.98234295 C15.189172,1.66078098 16.1997399,0 18.2208757,0 C20.1207433,0 21.0706771,1.66078098 21.0706771,4.98234295 L21.0706771,13.3672616 L29.377545,13.3672616 C32.6922077,13.3672616 34.349539,14.3596795 34.349539,16.3445153 Z" id="Path" fill="#4CAF50" fill-rule="nonzero"></path>
                            </g>
                        </g>
                    </g>
                </g>
            </g>
        </g>
    </g>
</svg>