<?xml version="1.0" encoding="UTF-8"?>
<svg width="86px" height="86px" viewBox="0 0 86 86" version="1.1" xmlns="http://www.w3.org/2000/svg" xmlns:xlink="http://www.w3.org/1999/xlink">
    <title>noun-insight-4071852</title>
    <g id="Main" stroke="none" stroke-width="1" fill="none" fill-rule="evenodd">
        <g id="Home-PAGE-Pre-Live" transform="translate(-1273, -5192)">
            <g id="Group-21" transform="translate(0, 4718)">
                <g id="Stream-Workflow-block" transform="translate(247, 319)">
                    <g id="Group-26" transform="translate(869, 155.427)">
                        <g id="noun-insight-4071852" transform="translate(157, 0)">
                            <path d="M76.5079212,85.5730337 C81.2006267,85.5677249 85.003492,81.7652533 85.0088013,77.0730337 L85.0088013,9.07303371 C85.003492,4.38081408 81.2006267,0.578342537 76.5079212,0.573033708 L8.50088013,0.573033708 C3.80817465,0.578342537 0.00530937871,4.38081408 0,9.07303371 L0,77.0730337 C0.00530937871,81.7652533 3.80817465,85.5677249 8.50088013,85.5730337 L76.5079212,85.5730337 Z M5.66725342,77.0730337 L5.66725342,9.07303371 C5.66912708,7.50900359 6.93668807,6.24157384 8.50088013,6.23970037 L76.5079212,6.23970037 C78.0721133,6.24157384 79.3396743,7.50900359 79.3415479,9.07303371 L79.3415479,77.0730337 C79.3396743,78.6370638 78.0721133,79.9044936 76.5079212,79.906367 L8.50088013,79.906367 C6.93668807,79.9044936 5.66912708,78.6370638 5.66725342,77.0730337 Z" id="Shape" fill="#000000" fill-rule="nonzero"></path>
                            <rect id="Rectangle" fill="#FFFFFF" x="52.5695725" y="0" width="33" height="34"></rect>
                            <path d="M85.2774387,19.1667837 C85.2774387,20.63569 84.089972,21.8230337 82.6209137,21.8230337 C81.1518553,21.8230337 79.9643886,20.63569 79.9643886,19.1667837 L79.9643886,9.64147121 L44.6512012,44.9510025 C44.1703702,45.4317837 43.5062389,45.7292837 42.773038,45.7292837 C41.3039797,45.7292837 40.116513,44.54194 40.116513,43.0730337 C40.116513,42.3399087 40.4140438,41.6758462 40.8948748,41.195065 L76.2080622,5.88553371 L66.6817634,5.88553371 C65.2127051,5.88553371 64.0252384,4.69818996 64.0252384,3.22928371 C64.0252384,1.76037746 65.2127051,0.573033708 66.6817634,0.573033708 L82.6209137,0.573033708 C84.089972,0.573033708 85.2774387,1.76037746 85.2774387,3.22928371 L85.2774387,19.1667837 Z" id="Path" fill="#4CAF50" fill-rule="nonzero"></path>
                        </g>
                    </g>
                </g>
            </g>
        </g>
    </g>
</svg>