<?xml version="1.0" encoding="UTF-8"?>
<svg width="85px" height="85px" viewBox="0 0 85 85" version="1.1" xmlns="http://www.w3.org/2000/svg" xmlns:xlink="http://www.w3.org/1999/xlink">
    <title>noun-insight-4071852</title>
    <g id="Main" stroke="none" stroke-width="1" fill="none" fill-rule="evenodd">
        <g id="Home-PAGE-Pre-Live" transform="translate(-847, -5193)" fill-rule="nonzero">
            <g id="Group-21" transform="translate(0, 4718)">
                <g id="Stream-Workflow-block" transform="translate(247, 319)">
                    <g id="Group-25" transform="translate(443, 156)">
                        <g id="noun-insight-4071852" transform="translate(157, 0)">
                            <path d="M76.5,85 C81.1922196,84.9946912 84.9946912,81.1922196 85,76.5 L85,8.5 C84.9946912,3.80778037 81.1922196,0.005308829 76.5,0 L8.5,0 C3.80778037,0.005308829 0.005308829,3.80778037 0,8.5 L0,76.5 C0.005308829,81.1922196 3.80778037,84.9946912 8.5,85 L76.5,85 Z M5.66666667,76.5 L5.66666667,8.5 C5.66854013,6.93596988 6.93596988,5.66854013 8.5,5.66666667 L76.5,5.66666667 C78.0640301,5.66854013 79.3314599,6.93596988 79.3333333,8.5 L79.3333333,76.5 C79.3314599,78.0640301 78.0640301,79.3314599 76.5,79.3333333 L8.5,79.3333333 C6.93596988,79.3314599 5.66854013,78.0640301 5.66666667,76.5 Z" id="Shape" fill="#000000"></path>
                            <path d="M21.8365,55.8365 L36.8333333,40.8396667 L46.1635,50.1698333 C47.2699162,51.2759155 49.0634171,51.2759155 50.1698333,50.1698333 L67.1698333,33.1698333 C68.2435879,32.0580932 68.2282317,30.2909265 67.1353193,29.198014 C66.0424069,28.1051016 64.2752402,28.0897454 63.1635,29.1635 L48.1666667,44.1603333 L38.8365,34.8301667 C37.7300838,33.7240845 35.9365829,33.7240845 34.8301667,34.8301667 L17.8301667,51.8301667 C17.093623,52.5415443 16.798231,53.5949874 17.0575247,54.5856041 C17.3168185,55.5762208 18.0904459,56.3498482 19.0810626,56.6091419 C20.0716793,56.8684357 21.1251223,56.5730437 21.8365,55.8365 Z" id="Path" fill="#4CAF50"></path>
                        </g>
                    </g>
                </g>
            </g>
        </g>
    </g>
</svg>