<?xml version="1.0" encoding="UTF-8"?>
<svg width="36px" height="37px" viewBox="0 0 36 37" version="1.1" xmlns="http://www.w3.org/2000/svg" xmlns:xlink="http://www.w3.org/1999/xlink">
    <title>Shape</title>
    <defs>
        <linearGradient id="grad1" x1="0%" y1="0%" x2="100%" y2="0%">
          <stop offset="0%" style="stop-color:rgb(255,100,50);stop-opacity:1" />
          <stop offset="100%" style="stop-color:rgb(123,46,255);stop-opacity:1" />
        </linearGradient>
      </defs>
    <g id="Main" stroke="none" stroke-width="1" fill="url(#grad1)" fill-rule="evenodd">
        <g id="Home-PAGE-Live" transform="translate(-162, -4376)" fill-rule="nonzero"  stroke="url(#grad1)" stroke-width="1.32">
            <g id="Features-that-work" transform="translate(0, 3776)">
                <g id="Rectangle-2" transform="translate(121, 291)">
                    <g id="Group-4" transform="translate(39.9267, 309.9916)">
                        <g id="noun-superhero-4095095" transform="translate(2.0733, 0)">
                            <path d="M27.250583,34.0146287 C27.6748345,33.5439439 27.9211651,32.9121811 27.9387832,32.2479414 C27.9564077,31.5832144 27.7444903,30.9366213 27.3458387,30.4389495 C27.5073985,30.3312573 27.6563678,30.2026742 27.7902328,30.0555236 L27.8196077,30.0244226 C28.2606501,29.5347008 28.5086566,28.871376 28.5086566,28.1801374 C28.5086566,27.4884948 28.2606501,26.8256811 27.8196077,26.3358522 L14.0227314,11.0741545 L15.8204183,10.985958 C17.0835474,10.9246854 18.2572971,11.2459048 19.2186632,11.9050585 L19.2186632,11.9045943 C19.9765299,12.427732 20.6211254,13.1291664 21.1065889,13.9581441 L21.1393209,14.0152397 L21.1397406,14.0152397 C21.6806581,14.9478039 22.4636735,15.677473 23.3864733,16.109668 C24.3088325,16.5413638 25.3276829,16.6550868 26.309675,16.4355313 L26.3873084,16.418821 L26.3868888,16.418821 C27.6936333,16.1324102 29.048183,16.3027737 30.263507,16.9052988 C31.478831,17.5078239 32.4950924,18.5132255 33.1715615,19.7823599 L33.2093286,19.8524523 L33.208909,19.8524523 C33.3331163,20.0864103 33.6054658,20.1648519 33.8169685,20.0274574 C34.0284712,19.8900629 34.0993839,19.5887979 33.9751765,19.3548399 L33.9386685,19.2847475 C33.1682113,17.8397406 32.0113169,16.6950241 30.6273322,16.008527 C29.2433475,15.3224576 27.7008002,15.1288909 26.2131482,15.4542789 L26.1355149,15.4709903 C25.3285539,15.6520202 24.4905895,15.5591869 23.7322608,15.20408 C22.9739751,14.8485084 22.3302283,14.2483077 21.885802,13.4814796 L21.85307,13.424384 L21.8526504,13.4239198 C21.2953717,12.4737208 20.5564337,11.6701852 19.6885293,11.0691288 C18.5748314,10.3022888 17.2210337,9.93325355 15.781724,10.0047434 L14.0486008,10.0892264 C14.9042371,8.86703093 15.140491,7.24745857 14.6751163,5.78937999 C14.2101606,4.33177675 13.1073236,3.23494992 11.7477249,2.87750083 C10.3881261,2.52005174 8.95708831,2.9513067 7.94920624,4.02173007 C7.87535004,4.10342763 7.80484556,4.1893081 7.73644666,4.28167684 L4.69453784,0.762205523 C4.25223854,0.274337424 3.65299883,0 3.02812699,0 C2.40370634,0 1.80442366,0.274337424 1.36214584,0.762205523 L1.33402999,0.793306446 C0.9227879,1.24960067 0.678552142,1.85815537 0.648343612,2.50152808 C0.617709669,3.1449008 0.803608155,3.77803012 1.16953745,4.27938574 C1.00377727,4.38754261 0.851456234,4.51844171 0.715904583,4.66929996 L0.689886787,4.69808008 L0.689886787,4.6976158 C0.248425419,5.18687424 0,5.84973553 0,6.54142567 C0,7.23306827 0.248425419,7.89588203 0.689886787,8.38523554 L23.8898666,34.0448041 C24.3325849,34.5322087 24.9318246,34.8060708 25.5562775,34.8060708 C26.1807304,34.8060708 26.7799808,34.5321969 27.2222586,34.0448041 L27.250583,34.0146287 Z M10.8539682,3.6766125 C12.0033319,3.6766125 13.0654647,4.35525479 13.6404151,5.45637148 C14.2149036,6.55742876 14.2149036,7.91383398 13.6404151,9.01481996 C13.0655077,10.1158772 12.0034394,10.7941036 10.8539682,10.7941036 C9.70460453,10.7941036 8.64290143,10.1159248 8.06795102,9.01481996 C7.49346254,7.91376268 7.49346254,6.55735746 8.06795102,5.45637148 C8.64285846,4.35531421 9.7044971,3.6766125 10.8539682,3.6766125 Z M1.96264793,3.78059121 L1.96306765,3.78059121 C1.39152267,3.14604777 1.39152267,2.12014036 1.96306765,1.48569199 L1.9911835,1.45459107 L1.9911835,1.45412691 C2.56189054,0.822364158 3.48635538,0.818181243 4.06162808,1.44530725 L7.22482222,5.10678378 L7.2244025,5.10631962 C6.91219755,5.76221731 6.75105673,6.49286084 6.75440846,7.2341399 C6.75440846,7.37990023 6.75440846,7.52379488 6.77203297,7.66583573 L4.05777713,4.66340597 C3.54329749,4.09430376 2.81989342,3.82042979 2.09809001,3.92116436 L1.96264793,3.78059121 Z M26.6236378,33.3188626 L26.595522,33.3499636 C26.0218821,33.9831167 25.0932599,33.9831167 24.5191689,33.3499636 L1.31811476,7.68564172 C0.744893922,7.05062295 0.744893922,6.02245772 1.31811476,5.38741518 L1.34497156,5.35863506 L1.34497156,5.35909922 C1.91861137,4.72501924 2.84766335,4.72501924 3.42132464,5.35909922 L7.49722034,9.86916084 L7.51820195,9.88726383 C7.64786659,10.0864039 7.7918083,10.2734705 7.94832975,10.4475368 C8.71710033,11.302111 9.76288272,11.7811974 10.853054,11.7783454 C11.5597209,11.779738 12.2550865,11.5782785 12.8702147,11.1934622 L27.1913358,27.0326874 C27.7628808,27.6672308 27.7628808,28.69397 27.1913358,29.3290126 L27.1619609,29.3601135 C27.0272579,29.509118 26.867374,29.6274873 26.6919669,29.7087214 L17.6445548,19.700741 C17.4708236,19.5085646 17.1892461,19.5085646 17.0159338,19.700741 C16.8422025,19.892454 16.8422025,20.2039267 17.0159338,20.3961031 L26.6222896,31.0223706 L26.6222896,31.0228348 C27.1959294,31.6564513 27.1963591,32.6845928 26.6235484,33.31916 L26.6236378,33.3188626 Z" id="Shape"></path>
                        </g>
                    </g>
                </g>
            </g>
        </g>
    </g>
</svg>